<?xml version="1.0" encoding="UTF-8"?>
<svg width="135px" height="40px" viewBox="0 0 135 40" version="1.1" xmlns="http://www.w3.org/2000/svg" xmlns:xlink="http://www.w3.org/1999/xlink">
    <!-- Generator: Sketch 53.1 (72631) - https://sketchapp.com -->
    <title>cydia-store</title>
    <desc>Created with Sketch.</desc>
    <g id="Page-1" stroke="none" stroke-width="1" fill="none" fill-rule="evenodd">
        <g id="cydia-store" transform="translate(-10.000000, -10.000000)">
            <rect id="Rectangle-path" fill-opacity="0" fill="#FFFFFF" fill-rule="nonzero" x="0" y="0" width="155" height="60"></rect>
            <path d="M140,50 L15,50 C12.2,50 10,47.8 10,45 L10,15 C10,12.2 12.2,10 15,10 L140,10 C142.8,10 145,12.2 145,15 L145,45 C145,47.8 142.8,50 140,50 Z" id="Shape" fill="#000000" fill-rule="nonzero"></path>
            <path d="M140,10.8 C142.3,10.8 144.2,12.7 144.2,15 L144.2,45 C144.2,47.3 142.3,49.2 140,49.2 L15,49.2 C12.7,49.2 10.8,47.3 10.8,45 L10.8,15 C10.8,12.7 12.7,10.8 15,10.8 L140,10.8 L140,10.8 Z M140,10 L15,10 C12.2,10 10,12.3 10,15 L10,45 C10,47.8 12.2,50 15,50 L140,50 C142.8,50 145,47.8 145,45 L145,15 C145,12.3 142.8,10 140,10 L140,10 Z" id="Shape" fill="#A6A6A6" fill-rule="nonzero"></path>
            <g id="Shape" transform="translate(51.000000, 16.000000)" fill="#FFFFFF" fill-rule="nonzero" stroke="#FFFFFF" stroke-width="0.2">
                <path d="M6.4,4.2 C6.4,5 6.2,5.7 5.7,6.2 C5.1,6.8 4.4,7.1 3.5,7.1 C2.6,7.1 1.9,6.8 1.3,6.2 C0.7,5.6 0.4,4.9 0.4,4 C0.4,3.1 0.7,2.4 1.3,1.8 C1.9,1.2 2.6,0.9 3.5,0.9 C3.9,0.9 4.3,1 4.7,1.2 C5.1,1.4 5.4,1.6 5.6,1.9 L5.1,2.4 C4.7,1.9 4.2,1.7 3.5,1.7 C2.9,1.7 2.3,1.9 1.9,2.4 C1.4,2.8 1.2,3.4 1.2,4.1 C1.2,4.8 1.4,5.4 1.9,5.8 C2.4,6.2 2.9,6.5 3.5,6.5 C4.2,6.5 4.7,6.3 5.2,5.8 C5.5,5.5 5.7,5.1 5.7,4.6 L3.5,4.6 L3.5,3.8 L6.4,3.8 C6.4,3.9 6.4,4.1 6.4,4.2 Z" id="Path"></path>
                <polygon id="Path" points="11 1.7 8.3 1.7 8.3 3.6 10.8 3.6 10.8 4.3 8.3 4.3 8.3 6.2 11 6.2 11 7 7.5 7 7.5 1 11 1"></polygon>
                <polygon id="Path" points="14.3 7 13.5 7 13.5 1.7 11.8 1.7 11.8 1 16 1 16 1.7 14.3 1.7"></polygon>
                <polygon id="Path" points="18.9 7 18.9 1 19.7 1 19.7 7"></polygon>
                <polygon id="Path" points="23.1 7 22.3 7 22.3 1.7 20.6 1.7 20.6 1 24.7 1 24.7 1.7 23 1.7 23 7"></polygon>
                <path d="M32.6,6.2 C32,6.8 31.3,7.1 30.4,7.1 C29.5,7.1 28.8,6.8 28.2,6.2 C27.6,5.6 27.3,4.9 27.3,4 C27.3,3.1 27.6,2.4 28.2,1.8 C28.8,1.2 29.5,0.9 30.4,0.9 C31.3,0.9 32,1.2 32.6,1.8 C33.2,2.4 33.5,3.1 33.5,4 C33.5,4.9 33.2,5.6 32.6,6.2 Z M28.8,5.7 C29.2,6.1 29.8,6.4 30.4,6.4 C31,6.4 31.6,6.2 32,5.7 C32.4,5.3 32.7,4.7 32.7,4 C32.7,3.3 32.5,2.7 32,2.3 C31.6,1.9 31,1.6 30.4,1.6 C29.8,1.6 29.2,1.8 28.8,2.3 C28.4,2.7 28.1,3.3 28.1,4 C28.1,4.7 28.3,5.3 28.8,5.7 Z"></path>
                <polygon id="Path" points="34.6 7 34.6 1 35.5 1 38.4 5.7 38.4 5.7 38.4 4.5 38.4 1 39.2 1 39.2 7 38.4 7 35.3 2.1 35.3 2.1 35.3 3.3 35.3 7"></polygon>
            </g>
            <path d="M29.6721177,17 L29.1201962,17.2207686 L19.1635323,20.9738348 L18.3466885,21.2829109 L18.8323794,22.0114473 L20.951758,25.2346688 L20.951758,25.4112837 L20.5322976,25.7203598 L17.7064595,27.8397383 L17,28.369583 L17.6623058,28.9435814 L20.951758,31.8577269 L20.951758,36.891251 L20.951758,37.2886345 L21.2829109,37.4873262 L29.0539657,42.4325429 L29.3630417,42.6312347 L29.7162715,42.4766966 L41.0196239,37.53148 L41.4390842,37.3548651 L41.4390842,36.891251 L41.4390842,32.3875715 L42.4546198,31.8798038 L43.1390025,31.526574 L42.741619,30.8863451 L40.7326247,27.5306623 L40.7326247,27.0008177 L43.3597711,24.1970564 L44,23.5347506 L43.1831562,23.0932134 L36.8691742,19.7154538 L36.5380213,19.5388389 L36.2068684,19.7154538 L35.5004088,20.0907604 L31.8135732,18.5674571 L31.5707277,18.4791496 L31.3058054,18.5674571 L30.6876533,18.7882257 L29.9811938,17.5298446 L29.6721177,17 Z M29.0318888,18.744072 L29.3409648,19.2959935 L27.0670482,20.1349141 L26.6034342,20.311529 L26.6034342,20.79722 L26.6034342,21.6582175 L26.2722813,21.4595258 L25.9632052,21.260834 L25.6541292,21.3932952 L21.415372,23.0269828 L21.2387572,23.0932134 L20.5102208,21.9893704 L29.0318888,18.744072 Z M31.526574,19.9803761 L35.0809485,21.4595258 L35.0809485,23.2919052 L31.6148814,24.7931316 L28.0163532,22.5412919 L28.0163532,21.2829109 L31.526574,19.9803761 Z M36.5600981,21.1283729 L41.7260834,23.9100572 L40.7326247,24.9697465 L40.7326247,24.5061325 L40.3131643,24.3074407 L36.7808667,22.8062142 L36.4938675,22.6958299 L36.4938675,21.1725266 L36.5600981,21.1283729 Z M25.8307441,22.8282911 L29.4513491,25.1022077 L25.9632052,26.470973 L22.4529845,24.1308258 L25.8307441,22.8282911 Z M36.4938675,24.2412101 L38.1937858,24.9697465 L35.0809485,26.470973 L33.3589534,25.5658217 L36.4938675,24.2412101 Z M22.364677,25.7424366 L25.1905151,27.6410466 L25.1905151,28.5903516 L22.364677,26.470973 L22.364677,25.7424366 Z M39.3197056,25.9852821 L39.3197056,27.2436631 L35.787408,28.8994276 L35.787408,27.6852003 L39.3197056,25.9852821 Z M30.8421913,26.0735895 L30.8421913,27.9501226 L26.7138185,29.7162715 L26.6034342,29.627964 L26.6034342,27.729354 L30.8421913,26.0735895 Z M32.2551104,26.5813573 L34.374489,27.7072772 L34.374489,29.1422731 L32.2551104,27.9942764 L32.2551104,26.5813573 Z M20.951758,27.1774325 L27.2436631,31.9018806 L24.5944399,33.2264922 L19.2518397,28.4578904 L20.951758,27.1774325 Z M39.7612428,28.6124285 L41.152085,30.9304988 L32.5200327,35.2575634 L30.9746525,32.7187244 L39.7612428,28.6124285 Z M31.5044971,29.1864268 L33.2044154,30.1136549 L29.5175797,31.83565 L27.9942764,30.6876533 L31.5044971,29.1864268 Z M28.5020442,32.8511856 L28.7228128,33.0057236 L28.7228128,40.5560098 L22.364677,36.5159444 L22.364677,33.1161079 L24.0204415,34.5952576 L24.3736713,34.9043336 L24.7931316,34.7056419 L28.5020442,32.8511856 Z M40.0261652,33.0940311 L40.0261652,36.427637 L30.1357318,40.7547016 L30.1357318,33.9991823 L31.6590352,36.5380213 L31.9901881,37.1120196 L32.5641864,36.8250204 L40.0261652,33.0940311 Z" id="Shape" fill="#FFFFFF" fill-rule="nonzero"></path>
            <text id="Cydia-Store" fill="#FFFFFF" font-family="HelveticaNeue, Helvetica Neue" font-size="16" font-weight="normal">
                <tspan x="49" y="40">Cydia Store</tspan>
            </text>
        </g>
    </g>
</svg>