<?xml version="1.0" encoding="UTF-8"?>
<svg width="135px" height="40px" viewBox="0 0 135 40" version="1.1" xmlns="http://www.w3.org/2000/svg" xmlns:xlink="http://www.w3.org/1999/xlink">
    <!-- Generator: Sketch 55.1 (78136) - https://sketchapp.com -->
    <title>Ignition-button</title>
    <desc>Created with Sketch.</desc>
    <g id="Page-1" stroke="none" stroke-width="1" fill="none" fill-rule="evenodd">
        <g id="Ignition-button" transform="translate(-10.000000, -10.000000)">
            <rect id="Rectangle-path" fill-opacity="0" fill="#FFFFFF" fill-rule="nonzero" x="0" y="0" width="155" height="60"></rect>
            <path d="M140,50 L15,50 C12.2,50 10,47.8 10,45 L10,15 C10,12.2 12.2,10 15,10 L140,10 C142.8,10 145,12.2 145,15 L145,45 C145,47.8 142.8,50 140,50 Z" id="Shape" fill="#000000" fill-rule="nonzero"></path>
            <path d="M140,10.8 C142.3,10.8 144.2,12.7 144.2,15 L144.2,45 C144.2,47.3 142.3,49.2 140,49.2 L15,49.2 C12.7,49.2 10.8,47.3 10.8,45 L10.8,15 C10.8,12.7 12.7,10.8 15,10.8 L140,10.8 L140,10.8 Z M140,10 L15,10 C12.2,10 10,12.3 10,15 L10,45 C10,47.8 12.2,50 15,50 L140,50 C142.8,50 145,47.8 145,45 L145,15 C145,12.3 142.8,10 140,10 L140,10 Z" id="Shape" fill="#A6A6A6" fill-rule="nonzero"></path>
            <g id="Shape" transform="translate(51.000000, 16.000000)" fill="#FFFFFF" fill-rule="nonzero" stroke="#FFFFFF" stroke-width="0.2">
                <path d="M6.4,4.2 C6.4,5 6.2,5.7 5.7,6.2 C5.1,6.8 4.4,7.1 3.5,7.1 C2.6,7.1 1.9,6.8 1.3,6.2 C0.7,5.6 0.4,4.9 0.4,4 C0.4,3.1 0.7,2.4 1.3,1.8 C1.9,1.2 2.6,0.9 3.5,0.9 C3.9,0.9 4.3,1 4.7,1.2 C5.1,1.4 5.4,1.6 5.6,1.9 L5.1,2.4 C4.7,1.9 4.2,1.7 3.5,1.7 C2.9,1.7 2.3,1.9 1.9,2.4 C1.4,2.8 1.2,3.4 1.2,4.1 C1.2,4.8 1.4,5.4 1.9,5.8 C2.4,6.2 2.9,6.5 3.5,6.5 C4.2,6.5 4.7,6.3 5.2,5.8 C5.5,5.5 5.7,5.1 5.7,4.6 L3.5,4.6 L3.5,3.8 L6.4,3.8 C6.4,3.9 6.4,4.1 6.4,4.2 Z" id="Path"></path>
                <polygon id="Path" points="11 1.7 8.3 1.7 8.3 3.6 10.8 3.6 10.8 4.3 8.3 4.3 8.3 6.2 11 6.2 11 7 7.5 7 7.5 1 11 1"></polygon>
                <polygon id="Path" points="14.3 7 13.5 7 13.5 1.7 11.8 1.7 11.8 1 16 1 16 1.7 14.3 1.7"></polygon>
                <polygon id="Path" points="18.9 7 18.9 1 19.7 1 19.7 7"></polygon>
                <polygon id="Path" points="23.1 7 22.3 7 22.3 1.7 20.6 1.7 20.6 1 24.7 1 24.7 1.7 23 1.7 23 7"></polygon>
                <path d="M32.6,6.2 C32,6.8 31.3,7.1 30.4,7.1 C29.5,7.1 28.8,6.8 28.2,6.2 C27.6,5.6 27.3,4.9 27.3,4 C27.3,3.1 27.6,2.4 28.2,1.8 C28.8,1.2 29.5,0.9 30.4,0.9 C31.3,0.9 32,1.2 32.6,1.8 C33.2,2.4 33.5,3.1 33.5,4 C33.5,4.9 33.2,5.6 32.6,6.2 Z M28.8,5.7 C29.2,6.1 29.8,6.4 30.4,6.4 C31,6.4 31.6,6.2 32,5.7 C32.4,5.3 32.7,4.7 32.7,4 C32.7,3.3 32.5,2.7 32,2.3 C31.6,1.9 31,1.6 30.4,1.6 C29.8,1.6 29.2,1.8 28.8,2.3 C28.4,2.7 28.1,3.3 28.1,4 C28.1,4.7 28.3,5.3 28.8,5.7 Z"></path>
                <polygon id="Path" points="34.6 7 34.6 1 35.5 1 38.4 5.7 38.4 5.7 38.4 4.5 38.4 1 39.2 1 39.2 7 38.4 7 35.3 2.1 35.3 2.1 35.3 3.3 35.3 7"></polygon>
            </g>
            <g id="logo" transform="translate(20.000000, 16.000000)" fill="#F03354" fill-rule="nonzero">
                <path d="M20.8917686,14.4281198 C20.6547878,12.7210022 20.3358865,10.5655139 18.9675848,8.76577493 C18.5078008,8.16084741 18.0520384,8.37055308 18.0068417,9.12819126 C17.9098841,10.7507736 17.4722174,12.5193652 15.4970109,14.1000303 C15.402408,14.0071696 16.7043587,10.6580839 15.9959594,8.0290441 C15.2875606,5.40000431 12.9940372,2.28317265 9.29787653,0.159327519 C8.63716612,-0.220542906 8.21499997,0.106982308 8.4031584,0.843319921 C8.50821038,1.2545428 8.56882162,1.63995207 8.59019963,2.00262479 C8.85524325,6.50098066 3.08270865,7.51499417 1.1331768,11.160116 C0.28118055,12.7531919 0,14.5385368 0,16.3271986 C0,22.0811213 4.63021545,27 10.4888637,27 C14.1740608,27 19.6235177,24.4795998 20.599624,19.9468315 C21.2748391,16.8113148 20.8917686,14.4281198 20.8917686,14.4281198 Z M17.1347216,21.2499917 C16.5371315,22.8486404 13.149527,24.5824268 10.5374115,24.6629958 C6.42614805,24.4911558 2.6459181,20.5037559 2.6459181,16.2342864 C2.6459181,13.9638849 4.01650568,10.843412 6.8208693,9.53420012 C7.51103483,9.21228208 7.70630805,9.55032078 7.33315327,10.2113716 C6.65178675,11.4185257 6.33126953,12.7978619 6.33126953,13.9141722 C6.33126953,15.8631859 7.20930157,18.7444296 9.85508212,20.2295158 C10.0363494,20.3841926 10.1659068,20.3841926 10.1954648,20.3044782 C9.65496315,17.9859711 10.0682962,16.3937837 10.5410891,15.4376882 C10.8764539,14.7597307 11.4823958,14.9159631 11.7134477,15.6393081 C12.7183046,18.7861078 13.7893922,20.2733649 14.9860846,20.3353345 C15.8718667,20.3812351 18.216533,18.3559432 17.1347216,21.2499917 Z M1.20884243,9.19294754 C2.39953718,8.14238465 4.25774842,6.593072 4.25774842,6.593072 C4.87920825,5.81866351 4.4882502,4.6582817 4.0299441,3.7947906 C3.6740781,3.12408106 3.31857225,3.26532086 3.15880373,4.00612033 C2.57458372,6.71284032 0.309226575,9.9866222 1.20884243,9.19294754 Z" id="Shape"></path>
            </g>
            <text id="Ignition" fill="#FFFFFF" font-family="HelveticaNeue, Helvetica Neue" font-size="17" font-weight="normal">
                <tspan x="51" y="40">IGNITION</tspan>
            </text>
        </g>
    </g>
</svg>