<?xml version="1.0" encoding="UTF-8"?>
<svg width="135px" height="40px" viewBox="0 0 135 40" version="1.1" xmlns="http://www.w3.org/2000/svg" xmlns:xlink="http://www.w3.org/1999/xlink">
    <!-- Generator: Sketch 59 (86127) - https://sketch.com -->
    <title>ninja-button</title>
    <desc>Created with Sketch.</desc>
    <g id="Page-1" stroke="none" stroke-width="1" fill="none" fill-rule="evenodd">
        <g id="ninja-button" transform="translate(-10.000000, -10.000000)">
            <rect id="Rectangle-path" fill-opacity="0" fill="#FFFFFF" fill-rule="nonzero" x="0" y="0" width="155" height="60"></rect>
            <path d="M140,50 L15,50 C12.2,50 10,47.8 10,45 L10,15 C10,12.2 12.2,10 15,10 L140,10 C142.8,10 145,12.2 145,15 L145,45 C145,47.8 142.8,50 140,50 Z" id="Shape" fill="#000000" fill-rule="nonzero"></path>
            <path d="M140,10.8 C142.3,10.8 144.2,12.7 144.2,15 L144.2,45 C144.2,47.3 142.3,49.2 140,49.2 L15,49.2 C12.7,49.2 10.8,47.3 10.8,45 L10.8,15 C10.8,12.7 12.7,10.8 15,10.8 L140,10.8 L140,10.8 Z M140,10 L15,10 C12.2,10 10,12.3 10,15 L10,45 C10,47.8 12.2,50 15,50 L140,50 C142.8,50 145,47.8 145,45 L145,15 C145,12.3 142.8,10 140,10 L140,10 Z" id="Shape" fill="#A6A6A6" fill-rule="nonzero"></path>
            <g id="Shape" transform="translate(51.000000, 16.000000)" fill="#FFFFFF" fill-rule="nonzero" stroke="#FFFFFF" stroke-width="0.2">
                <path d="M6.4,4.2 C6.4,5 6.2,5.7 5.7,6.2 C5.1,6.8 4.4,7.1 3.5,7.1 C2.6,7.1 1.9,6.8 1.3,6.2 C0.7,5.6 0.4,4.9 0.4,4 C0.4,3.1 0.7,2.4 1.3,1.8 C1.9,1.2 2.6,0.9 3.5,0.9 C3.9,0.9 4.3,1 4.7,1.2 C5.1,1.4 5.4,1.6 5.6,1.9 L5.1,2.4 C4.7,1.9 4.2,1.7 3.5,1.7 C2.9,1.7 2.3,1.9 1.9,2.4 C1.4,2.8 1.2,3.4 1.2,4.1 C1.2,4.8 1.4,5.4 1.9,5.8 C2.4,6.2 2.9,6.5 3.5,6.5 C4.2,6.5 4.7,6.3 5.2,5.8 C5.5,5.5 5.7,5.1 5.7,4.6 L3.5,4.6 L3.5,3.8 L6.4,3.8 C6.4,3.9 6.4,4.1 6.4,4.2 Z" id="Path"></path>
                <polygon id="Path" points="11 1.7 8.3 1.7 8.3 3.6 10.8 3.6 10.8 4.3 8.3 4.3 8.3 6.2 11 6.2 11 7 7.5 7 7.5 1 11 1"></polygon>
                <polygon id="Path" points="14.3 7 13.5 7 13.5 1.7 11.8 1.7 11.8 1 16 1 16 1.7 14.3 1.7"></polygon>
                <polygon id="Path" points="18.9 7 18.9 1 19.7 1 19.7 7"></polygon>
                <polygon id="Path" points="23.1 7 22.3 7 22.3 1.7 20.6 1.7 20.6 1 24.7 1 24.7 1.7 23 1.7 23 7"></polygon>
                <path d="M32.6,6.2 C32,6.8 31.3,7.1 30.4,7.1 C29.5,7.1 28.8,6.8 28.2,6.2 C27.6,5.6 27.3,4.9 27.3,4 C27.3,3.1 27.6,2.4 28.2,1.8 C28.8,1.2 29.5,0.9 30.4,0.9 C31.3,0.9 32,1.2 32.6,1.8 C33.2,2.4 33.5,3.1 33.5,4 C33.5,4.9 33.2,5.6 32.6,6.2 Z M28.8,5.7 C29.2,6.1 29.8,6.4 30.4,6.4 C31,6.4 31.6,6.2 32,5.7 C32.4,5.3 32.7,4.7 32.7,4 C32.7,3.3 32.5,2.7 32,2.3 C31.6,1.9 31,1.6 30.4,1.6 C29.8,1.6 29.2,1.8 28.8,2.3 C28.4,2.7 28.1,3.3 28.1,4 C28.1,4.7 28.3,5.3 28.8,5.7 Z"></path>
                <polygon id="Path" points="34.6 7 34.6 1 35.5 1 38.4 5.7 38.4 5.7 38.4 4.5 38.4 1 39.2 1 39.2 7 38.4 7 35.3 2.1 35.3 2.1 35.3 3.3 35.3 7"></polygon>
            </g>
            <g id="Ninja" transform="translate(19.000000, 18.000000)" fill="#FFFFFF" fill-rule="nonzero">
                <circle id="Oval" cx="8.37086457" cy="13.6012897" r="1.79926366"></circle>
                <circle id="Oval" cx="15.7828286" cy="13.6012897" r="1.79926366"></circle>
                <path d="M26.3837393,7.97734592 L27.9947565,6.74603408 L22.6335868,6.74603408 C20.6961901,2.89115746 16.6977193,0.143272914 12.076686,0.143272914 C5.55841084,0.143272914 0.274338719,5.38847503 0.274338719,11.9067501 C0.274338719,18.4256677 5.55841084,23.6901442 12.076686,23.6901442 C18.5949611,23.6901442 23.8790332,18.4696776 23.8790332,11.9510812 C23.8790332,11.022056 23.7682055,10.279671 23.5655032,9.31595182 L27.9947565,9.31595182 L26.3837393,7.97734592 Z M21.6753287,16.3832256 L2.47836442,16.3832256 C1.82271416,15.0982667 1.45457344,13.4695814 1.45457344,11.839611 C1.45457344,11.4171808 1.48220006,11.2433901 1.53006478,10.6009107 L22.6229859,10.6009107 C22.6711719,11.2433901 22.6984774,11.4171808 22.6984774,11.839611 C22.6987985,13.4695814 22.330979,15.0982667 21.6753287,16.3832256 Z" id="Shape"></path>
            </g>
            <text id="Ignition" fill="#FFFFFF" font-family="HelveticaNeue, Helvetica Neue" font-size="17" font-weight="normal">
                <tspan x="51" y="40">iOS Ninja</tspan>
            </text>
        </g>
    </g>
</svg>